<?xml version="1.0" encoding="utf-8"?>
<!-- Generator: Adobe Illustrator 24.0.1, SVG Export Plug-In . SVG Version: 6.00 Build 0)  -->
<svg version="1.1" id="Calque_1" xmlns="http://www.w3.org/2000/svg" xmlns:xlink="http://www.w3.org/1999/xlink" x="0px" y="0px"
	 viewBox="0 0 500 500" style="enable-background:new 0 0 500 500;" xml:space="preserve">
<style type="text/css">
	.st0{fill:#FFFFFF;}
</style>
<path class="st0" d="M35.4,240.1c29.2-21.9,61.4-36.5,97.9-40.6c7.1-0.8,9.8-4.1,11-11.1c4.5-25.3,22.3-38.7,47.6-36.6
	c22.2,1.8,37.6,18.4,38,42.3c0.2,9.3,3.3,14.3,12.6,15.4c2.9,0.3,5.8,1.2,8.7,1.8c19.5,4.1,19.5,4.1,26-14.4
	c6.1-17.4,22.5-28.1,42.5-27.6c18.9,0.4,35.1,11.6,39.4,29.6c2.7,11.2,6.6,12.3,16.1,7.1c14.8-8.1,29.1-16.9,42.1-27.7
	c10.7-9,18.9-9.3,28.7,1c26.9,28.4,24.4,26.9-1.9,48.9c-18.5,15.5-39.3,27.6-62.6,34.6c-8.6,2.6-12.3,7.5-12.1,16.5
	c0.4,14.3-0.2,28.6,0.2,42.9c0.2,10-4.4,16.2-13.5,18.8c-25.7,7.3-51.5,8-77.2,0.2c-10.6-3.2-15.7-10.7-15.6-21.8
	c0.1-13.1,0.1-26.1-0.1-39.2c-0.2-9.8-7.8-15.8-17.4-14.9c-5.6,0.6-5.3,4.5-5.4,8.2c-0.1,11.4-0.4,22.7,0,34.1
	c0.4,11.3-4.6,18.5-15.1,21.9c-24.3,7.9-48.8,8.2-73.3,1.2c-12.5-3.5-19-10.9-18.1-24.8c0.9-12.6-0.2-25.3,0.3-37.9
	c0.4-11.1-4-12.9-13.8-9.6c-14.4,4.9-28.2,11-41.4,18.6c-15.2,8.8-21.6,7.5-31.3-7.3c-4.6-7-8.1-14.7-12.1-22
	C35.4,245.2,35.4,242.6,35.4,240.1z M149.1,277.4c0,0,0.1,0,0.1,0c0,9.7,0,19.4,0,29.1c0,6.5,3.1,10.1,9.4,11.5
	c17.9,3.8,35.8,4.2,53.9,0.5c8.9-1.8,12.9-6.2,12.6-15.6c-0.5-14.7,0.1-29.5-0.2-44.2c-0.2-9.5,3-13.3,12.8-10.4
	c9.7,2.8,19.5,5.3,29.4,7.3c8.6,1.8,11.6,6.8,11.4,15.3c-0.4,15.2,0.1,30.3-0.1,45.5c-0.1,7.5,3.2,11.9,10.4,13.5
	c18.8,4,37.5,4.7,56.3-0.3c7.6-2,11.2-6.4,11.1-14.4c-0.3-14.7,0.5-29.5-0.2-44.2c-0.5-10.6,3.3-15.9,13.7-18.9
	c26.2-7.5,49.5-20.7,70.5-38.3c8.9-7.5,7.2-12.6,0.8-20.6c-6.7-8.3-11.3-7-18.6-1.3c-16.2,12.8-33.2,24.6-52.8,31.8
	c-21.2,7.7-21.2,7.6-23.5-15c-1.5-14.7-12-25.1-26.2-26c-13.7-0.9-26.5,8.6-29.6,22.4c-1.3,5.7-1.4,11.7-1.7,17.5
	c-0.3,6.7-2.5,10.5-10,8.9c-18.5-3.9-37.1-7.8-55.6-11.7c-5.4-1.1-7.7-4.8-7.8-10c-0.2-6.3-0.1-12.6-0.3-19
	c-0.3-10.3-5.5-17.5-14.5-22c-19.7-9.9-41.1,2.4-40.7,24.7c0.2,14.1-4.4,18.7-18.5,19.9c-28.4,2.2-55.2,10.9-79.6,26.3
	c-6.3,4-8.5,8.4-5.5,15.7c4.9,11.7,8.4,13.4,19.9,7.2c19.4-10.4,39.3-19.2,61.3-22.6c8.1-1.2,12,1.2,11.8,9.8
	C148.9,258.9,149.1,268.2,149.1,277.4z"/>
</svg>
