<?xml version="1.0" encoding="utf-8"?>
<!-- Generator: Adobe Illustrator 24.0.1, SVG Export Plug-In . SVG Version: 6.00 Build 0)  -->
<svg version="1.1" id="Calque_1" xmlns="http://www.w3.org/2000/svg" xmlns:xlink="http://www.w3.org/1999/xlink" x="0px" y="0px"
	 viewBox="0 0 30.5 30.5" style="enable-background:new 0 0 30.5 30.5;" xml:space="preserve">
<style type="text/css">
	.st0{fill:#1C50B2;}
	.st1{fill:#FFC107;}
	.st2{fill:#FFFFFF;}
	.st3{font-family:'Montserrat-Medium';}
	.st4{font-size:4.22px;}
</style>
<title>logo-rgpd6</title>
<circle class="st0" cx="15.2" cy="15.2" r="15.2"/>
<path class="st1" d="M22.9,4.2L22,4l-0.4-0.9c0,0-0.1,0-0.1,0l0,0L21.1,4l-0.9,0.1c0,0,0,0.1,0,0.1c0,0,0,0,0,0l0,0L20.9,5l-0.1,0.9
	c0,0,0,0.1,0,0.1c0,0,0,0,0,0c0,0,0.1,0,0.1,0l0,0l0.8-0.4L22.4,6c0,0,0.1,0,0.1,0c0,0,0,0,0-0.1L22.4,5L23,4.3c0,0,0-0.1,0-0.1
	c0,0,0,0,0,0l0,0L22.9,4.2z"/>
<path class="st1" d="M27.8,8.3l-0.9-0.1l-0.4-0.9c0,0-0.1,0-0.2,0l0,0L26,8.1l-0.9,0.1c0,0-0.1,0.1,0,0.1l0.6,0.7L25.6,10
	c0,0.1,0,0.1,0.1,0.1c0,0,0,0,0,0l0.8-0.4l0.8,0.4c0,0,0.1,0,0.1,0c0,0,0-0.1,0-0.1l-0.2-0.9l0.6-0.7L27.8,8.3L27.8,8.3z"/>
<path class="st1" d="M16.6,2.3l-0.9-0.1l-0.4-0.8c0,0,0-0.1-0.1-0.1c0,0-0.1,0-0.1,0.1l0,0l-0.4,0.8l-0.9,0.1c0,0,0,0.1,0,0.1
	c0,0,0,0,0,0l0,0L14.5,3L14.4,4c0,0.1,0.1,0.1,0.1,0.1l0.8-0.4l0.8,0.4c0,0,0.1,0,0.1,0c0,0,0,0,0,0c0,0,0-0.1,0-0.1c0,0,0,0,0,0
	l0,0L16,3l0.6-0.7C16.7,2.4,16.7,2.3,16.6,2.3L16.6,2.3L16.6,2.3z"/>
<path class="st1" d="M29.9,14L29,13.9l-0.4-0.8c0,0-0.1,0-0.1,0c0,0,0,0,0,0l0,0l-0.4,0.8L27.2,14c0,0,0,0.1,0,0.1c0,0,0,0,0,0l0,0
	l0.7,0.7l-0.2,0.9c0,0,0,0.1,0,0.1c0,0,0,0,0,0c0,0,0.1,0,0.1,0c0,0,0,0,0,0l0.8-0.4l0.8,0.4c0,0,0.1,0,0.1-0.1l-0.2-0.9l0.6-0.7
	C30,14.2,30,14.1,29.9,14C30,14.1,30,14.1,29.9,14L29.9,14L29.9,14z"/>
<path class="st1" d="M1.5,14l0.5,0.7l-0.3,0.9c0,0,0,0.1,0.1,0.1c0,0,0,0,0,0l0,0l0.9-0.3l0.7,0.5c0,0,0.1,0,0.1-0.1v-0.9l0.8-0.5
	c0,0,0.1,0,0.1-0.1c0,0,0-0.1-0.1-0.1l-0.9-0.3l-0.2-0.9c0,0-0.1,0-0.1,0l0,0l-0.6,0.8H1.6C1.6,13.8,1.5,13.8,1.5,14
	C1.5,13.9,1.5,13.9,1.5,14C1.5,13.9,1.5,14,1.5,14L1.5,14z"/>
<path class="st1" d="M3.1,7.8l0.5,0.7L3.3,9.4c0,0,0,0.1,0.1,0.1l0.9-0.3L5,9.8h0.1V8.8l0.8-0.6c0,0,0-0.1,0-0.1l0,0L5,7.9L4.8,7
	C4.7,7,4.7,7,4.6,7c0,0,0,0,0,0c0,0,0,0-0.1,0.1L4,7.8L3.1,7.8C3.1,7.8,3,7.8,3.1,7.8c0,0.1,0,0.1,0,0.1V7.8z"/>
<path class="st1" d="M7.3,4.5l0.5,0.7L7.5,6.1c0,0.1,0,0.1,0.1,0.1c0,0,0,0,0,0l0,0l0.9-0.3l0.7,0.5c0,0,0.1,0.1,0.1,0c0,0,0,0,0,0
	l0,0v-1l0.8-0.6c0,0,0-0.1,0-0.1l0,0L9.2,4.5L9,3.6c0,0,0-0.1-0.1-0.1c0,0,0,0,0,0c0,0-0.1,0-0.1,0.1c0,0,0,0,0,0L8.3,4.4L7.3,4.5
	C7.3,4.4,7.2,4.5,7.3,4.5C7.2,4.5,7.2,4.5,7.3,4.5L7.3,4.5z"/>
<path class="st1" d="M7.6,26.8l0.9,0.1l0.4,0.8c0,0,0.1,0,0.1,0l0,0l0.4-0.8l0.9-0.1c0,0,0-0.1,0-0.1c0,0,0,0,0,0l0,0l-0.6-0.7
	L9.9,25c0-0.1,0-0.1-0.1-0.1c0,0,0,0-0.1,0L9,25.3l-0.8-0.4c0,0-0.1,0-0.1,0c0,0,0,0,0,0c0,0,0,0.1,0,0.1l0.2,0.9l-0.6,0.7
	c0,0,0,0.1,0,0.1C7.6,26.7,7.6,26.7,7.6,26.8L7.6,26.8L7.6,26.8z"/>
<path class="st1" d="M3.1,22.1l0.9,0.1l0.4,0.8c0,0,0.1,0,0.1,0l0,0l0.4-0.8l0.9-0.1c0,0,0-0.1,0-0.1l0,0l-0.7-0.6l0.1-0.9
	c0,0,0-0.1-0.1-0.1c0,0,0,0,0,0H5.1l-0.8,0.4l-0.8-0.4c0,0-0.1,0-0.1,0c0,0,0,0,0,0c0,0,0,0,0,0.1l0.1,0.9L2.9,22c0,0,0,0.1,0,0.1
	l0,0L3.1,22.1z"/>
<path class="st1" d="M14,28.7l0.9,0.1l0.4,0.9c0,0,0.1,0,0.1,0l0,0l0.4-0.9l0.9-0.1c0,0,0-0.1,0-0.1l0,0l-0.6-0.7l0.1-0.9
	c0,0,0-0.1-0.1-0.1l-0.8,0.4l-0.8-0.4c0,0-0.1,0-0.1,0.1l0.1,0.9l-0.6,0.7c0,0,0,0.1,0,0.1l0,0L14,28.7z"/>
<path class="st1" d="M27.8,22.1l-0.5-0.8l0.3-0.9c0,0,0-0.1,0-0.1c0,0-0.1,0-0.1,0l-0.9,0.3L26,20.2c0,0-0.1,0-0.1,0c0,0,0,0,0,0
	l0,0v0.9l-0.8,0.5c0,0,0,0.1,0,0.1c0,0,0,0,0,0l0,0l0.9,0.3l0.3,0.9c0,0,0.1,0,0.1,0c0,0,0,0,0,0l0,0l0.5-0.8L27.8,22.1
	C27.8,22.1,27.8,22.1,27.8,22.1C27.8,22,27.8,22,27.8,22.1L27.8,22.1L27.8,22.1z"/>
<path class="st1" d="M23.8,26.7l-0.5-0.8l0.3-0.9c0,0,0-0.1-0.1-0.1l-0.9,0.3l-0.7-0.5c0,0-0.1,0-0.1,0c0,0,0,0,0,0l0,0v0.9
	l-0.8,0.5c0,0,0,0.1,0,0.1c0,0,0,0,0,0l0,0l0.9,0.3l0.2,0.9c0,0,0.1,0,0.1,0c0,0,0,0,0,0c0,0,0,0,0,0l0.5-0.8L23.8,26.7
	c0,0,0-0.1,0-0.1l0,0L23.8,26.7z"/>
<path class="st2" d="M18.1,11.3V9.7c0-1.5-1.2-2.7-2.7-2.7c-1.5,0-2.7,1.2-2.7,2.7v1.5c-0.5,0.1-0.8,0.5-0.8,1V16c0,0.6,0.4,1,1,1h5
	c0.6,0,1-0.4,1-1l0,0v-3.7C18.9,11.8,18.5,11.4,18.1,11.3z M15.8,14.5l0.2,1.1c0,0,0,0.1,0,0.2c0,0.1-0.1,0.1-0.1,0.1H15
	c-0.1,0-0.1,0-0.2-0.1c0,0,0-0.1,0-0.2l0.2-1.1c-0.4-0.2-0.6-0.5-0.6-0.9c0-0.6,0.5-1,1-1s1,0.5,1,1C16.5,14,16.2,14.3,15.8,14.5z
	 M16.8,11.3h-2.9V9.8c-0.3-0.8,0.2-1.7,1-1.9s1.7,0.2,1.9,1c0.1,0.3,0.1,0.6,0,0.9L16.8,11.3z"/>
<g>
	<text transform="matrix(1 0 0 1 8.94 22.05)" class="st2 st3 st4">RG</text>
	<text transform="matrix(1 0 0 1 15.27 22.05)" class="st2 st3 st4">P</text>
	<text transform="matrix(1 0 0 1 18.27 22.05)" class="st2 st3 st4">D</text>
</g>
</svg>
