<svg xmlns="http://www.w3.org/2000/svg" viewBox="0 0 39.8 39.94"><defs><style>.cls-1{fill:#8064ec;}</style></defs><title>Fichier 1</title><g id="Calque_2" data-name="Calque 2"><g id="Calque_1-2" data-name="Calque 1"><path class="cls-1" d="M.8,39.91C0,40,0,39.77.05,39A19.57,19.57,0,0,1,5.69,27,19.07,19.07,0,0,1,17,21.28c.19,0,.38-.09.57-.13,1.07-.24,1.28,0,1.12,1a20.87,20.87,0,0,1-6.57,12.65A19.76,19.76,0,0,1,.8,39.91Z"/><path class="cls-1" d="M21.89,18.75c-1,.43-.9-.35-.81-1A20.22,20.22,0,0,1,27.56,5.07,19.37,19.37,0,0,1,39.19,0c1-.08.51.68.47.93A20.43,20.43,0,0,1,38,7.07c-3,6.46-8.1,10.23-15,11.62A7.85,7.85,0,0,1,21.89,18.75Z"/><path class="cls-1" d="M17.28,18.73a19.85,19.85,0,0,1-9.36-3.85A20.3,20.3,0,0,1,.12,2C-.24.16.15-.21,2.05.15A20.2,20.2,0,0,1,16.31,10.38a20.52,20.52,0,0,1,2.37,7.85C18.75,18.71,18.63,18.75,17.28,18.73Z"/><path class="cls-1" d="M39.77,39.49c.1.55-.56.48-1.16.4a19.73,19.73,0,0,1-7.95-2.77,20.17,20.17,0,0,1-9.26-13c-.17-.76-.23-1.54-.34-2.3s.27-.81.84-.73A20.18,20.18,0,0,1,37.71,32.18,21.8,21.8,0,0,1,39.77,39.49Z"/></g></g></svg>